<svg width="68" height="68" viewBox="0 0 68 68" fill="none" xmlns="http://www.w3.org/2000/svg">
<g clip-path="url(#clip0_0_1451)">
<path d="M14.1682 29.4514C14.099 29.7381 14.0594 29.9061 13.664 29.8073L9.15663 28.6804L8.00012 33.3262L16.3131 35.402L14.6327 42.1532L19.071 43.2603L20.7514 36.5091L23.5092 37.201L21.8288 43.9423L26.0495 45L27.7398 38.2488L30.9128 39.0494C33.0281 39.5733 41.0446 39.6722 42.7744 32.6639C43.3288 30.79 43.233 28.7837 42.5026 26.9711C41.7722 25.1586 40.4501 23.6464 38.7514 22.6804C38.7514 22.6804 43.6937 21.168 44.3856 16.6409C45.0776 12.1137 41.9243 10.0082 40.0957 8.85173C38.6572 8.02087 37.1283 7.35756 35.5388 6.87479L37.2983 -0.182866L33.2357 -1.17133L31.496 5.84679L28.2341 5.03624L30.0133 -2.01153L25.9013 -3L24.1418 4.04778L15.5421 1.9028L14.4944 6.05437L19.2093 7.23064C19.6838 7.34926 19.6245 7.58649 19.585 7.74465L14.1682 29.4514ZM27.1764 9.21746L32.1879 10.4728C33.0479 10.6903 37.0512 12.4498 36.1418 15.9984C35.9198 16.9782 35.354 17.8461 34.547 18.4445C33.74 19.043 32.7452 19.3324 31.7431 19.2603C31.3345 19.2595 30.9271 19.2164 30.5273 19.1318L25.0018 17.7479L27.1764 9.21746ZM24.0034 22.196L31.8321 24.173C32.3964 24.3251 32.9238 24.5906 33.382 24.9534C33.8403 25.3161 34.2198 25.7685 34.4973 26.2829C34.7748 26.7972 34.9446 27.3628 34.9962 27.9449C35.0478 28.5271 34.9802 29.1137 34.7975 29.6689C34.0957 32.4959 31.3181 33.1186 29.9441 33.1186C29.7414 33.1248 29.5388 33.1049 29.3411 33.0593L21.7794 31.1812L24.0034 22.196Z" fill="#F9B34A"/>
</g>
<defs>
<clipPath id="clip0_0_1451">
<rect width="68" height="68" fill="white"/>
</clipPath>
</defs>
</svg>
