<svg width="37" height="45" viewBox="0 0 37 45" fill="none" xmlns="http://www.w3.org/2000/svg">
<path d="M6.16804 29.4514C6.09885 29.7381 6.05931 29.9061 5.66392 29.8073L1.15651 28.6804L0 33.3262L8.31302 35.402L6.63262 42.1532L11.0708 43.2603L12.7512 36.5091L15.5091 37.201L13.8287 43.9423L18.0494 45L19.7397 38.2488L22.9127 39.0494C25.028 39.5733 33.0445 39.6722 34.7743 32.6639C35.3287 30.79 35.2329 28.7837 34.5025 26.9711C33.772 25.1586 32.45 23.6464 30.7512 22.6804C30.7512 22.6804 35.6936 21.168 36.3855 16.6409C37.0774 12.1137 33.9242 10.0082 32.0956 8.85173C30.6571 8.02087 29.1282 7.35756 27.5387 6.87479L29.2982 -0.182866L25.2356 -1.17133L23.4959 5.84679L20.2339 5.03624L22.0132 -2.01153L17.9012 -3L16.1417 4.04778L7.54201 1.9028L6.49423 6.05437L11.2092 7.23064C11.6837 7.34926 11.6244 7.58649 11.5848 7.74465L6.16804 29.4514ZM19.1763 9.21746L24.1878 10.4728C25.0478 10.6903 29.0511 12.4498 28.1417 15.9984C27.9197 16.9782 27.3539 17.8461 26.5469 18.4445C25.7399 19.043 24.7451 19.3324 23.743 19.2603C23.3344 19.2595 22.9269 19.2164 22.5272 19.1318L17.0016 17.7479L19.1763 9.21746ZM16.0033 22.196L23.832 24.173C24.3963 24.3251 24.9237 24.5906 25.3819 24.9534C25.8402 25.3161 26.2196 25.7685 26.4972 26.2829C26.7747 26.7972 26.9445 27.3628 26.9961 27.9449C27.0477 28.5271 26.9801 29.1137 26.7974 29.6689C26.0956 32.4959 23.318 33.1186 21.944 33.1186C21.7413 33.1248 21.5386 33.1049 21.341 33.0593L13.7792 31.1812L16.0033 22.196Z" fill="#F9B34A"/>
</svg>
