<svg width="30" height="30" viewBox="0 0 30 30" fill="none" xmlns="http://www.w3.org/2000/svg">
<path d="M12.8027 29.7808C12.5273 29.7808 12.2578 29.6724 12.0557 29.4732L6.6416 24.0591C6.22852 23.6461 6.22852 22.9781 6.6416 22.5679C7.05469 22.1548 7.72266 22.1548 8.13281 22.5679L11.748 26.1802V9.05621C11.748 8.4732 12.2197 8.00152 12.8027 8.00152C13.3857 8.00152 13.8574 8.4732 13.8574 9.05621V28.7261C13.8574 29.1539 13.5996 29.5377 13.207 29.7017C13.0752 29.7545 12.9375 29.7808 12.8027 29.7808ZM17.168 20.2476C16.585 20.2476 16.1133 19.7759 16.1133 19.1929V9.05621C16.1133 8.62848 16.3711 8.24469 16.7637 8.08063C17.1592 7.91656 17.6133 8.00738 17.9121 8.31207L22.8633 13.2779C23.2734 13.691 23.2734 14.3589 22.8604 14.7691C22.4473 15.1793 21.7793 15.1793 21.3691 14.7662L18.2227 11.608V19.1929C18.2227 19.7759 17.751 20.2476 17.168 20.2476ZM23.4961 26.1363H19.8047C19.2217 26.1363 18.75 25.6646 18.75 25.0816C18.75 24.4986 19.2217 24.0269 19.8047 24.0269H23.4961C24.0791 24.0269 24.5508 24.4986 24.5508 25.0816C24.5508 25.6646 24.0791 26.1363 23.4961 26.1363ZM23.4961 22.9722H19.8047C19.2217 22.9722 18.75 22.5005 18.75 21.9175C18.75 21.3345 19.2217 20.8629 19.8047 20.8629H23.4961C24.0791 20.8629 24.5508 21.3345 24.5508 21.9175C24.5508 22.5005 24.0791 22.9722 23.4961 22.9722ZM23.4961 29.3004H19.8047C19.2217 29.3004 18.75 28.8287 18.75 28.2457C18.75 27.6627 19.2217 27.191 19.8047 27.191H23.4961C24.0791 27.191 24.5508 27.6627 24.5508 28.2457C24.5508 28.8287 24.0791 29.3004 23.4961 29.3004Z" fill="#4682C8"/>
<path d="M16.1396 18.0762C16.1396 18.3559 16.2508 18.6242 16.4486 18.8219C16.6464 19.0197 16.9146 19.1309 17.1943 19.1309C17.4741 19.1309 17.7423 19.0197 17.9401 18.8219C18.1379 18.6242 18.249 18.3559 18.249 18.0762C18.249 17.7965 18.1379 17.5282 17.9401 17.3304C17.7423 17.1326 17.4741 17.0215 17.1943 17.0215C16.9146 17.0215 16.6464 17.1326 16.4486 17.3304C16.2508 17.5282 16.1396 17.7965 16.1396 18.0762Z" fill="#4682C8"/>
<path d="M16.1396 21.2402C16.1396 21.52 16.2508 21.7882 16.4486 21.986C16.6464 22.1838 16.9146 22.2949 17.1943 22.2949C17.4741 22.2949 17.7423 22.1838 17.9401 21.986C18.1379 21.7882 18.249 21.52 18.249 21.2402C18.249 20.9605 18.1379 20.6922 17.9401 20.4945C17.7423 20.2967 17.4741 20.1855 17.1943 20.1855C16.9146 20.1855 16.6464 20.2967 16.4486 20.4945C16.2508 20.6922 16.1396 20.9605 16.1396 21.2402Z" fill="#4682C8"/>
<path d="M16.1104 24.4043C16.1104 24.684 16.2215 24.9523 16.4193 25.1501C16.6171 25.3479 16.8853 25.459 17.165 25.459C17.4448 25.459 17.713 25.3479 17.9108 25.1501C18.1086 24.9523 18.2197 24.684 18.2197 24.4043C18.2197 24.1246 18.1086 23.8563 17.9108 23.6585C17.713 23.4607 17.4448 23.3496 17.165 23.3496C16.8853 23.3496 16.6171 23.4607 16.4193 23.6585C16.2215 23.8563 16.1104 24.1246 16.1104 24.4043Z" fill="#4682C8"/>
</svg>
