<svg width="28" height="28" viewBox="0 0 28 28" fill="none" xmlns="http://www.w3.org/2000/svg">
<g clip-path="url(#clip0_0_1499)">
<path d="M1.55421 25.704C0.686206 25.704 -0.0137936 25.004 0.0002064 24.136V1.568C0.0002064 0.7 0.700206 0 1.55421 0H14.4902C14.7002 0 14.9102 0.098 15.0642 0.252L24.0662 9.296C24.2202 9.436 24.3042 9.646 24.3042 9.856V13.426C24.2762 13.832 23.9402 14.14 23.5342 14.14H23.4782C23.2682 14.126 23.0862 14.028 22.9462 13.874C22.8062 13.72 22.7502 13.524 22.7642 13.314V10.682H14.9522C14.5322 10.682 14.1822 10.332 14.1822 9.912V1.54H2.04421C1.77821 1.54 1.55421 1.764 1.55421 2.03V23.66C1.55421 23.94 1.77821 24.164 2.04421 24.164H13.8602L13.8742 24.178C14.2102 24.234 14.4762 24.486 14.5182 24.822C14.5462 25.032 14.4902 25.228 14.3782 25.396C14.2522 25.564 14.0702 25.662 13.8742 25.704H13.8602V25.718H1.55421V25.704ZM15.7222 9.142H21.7282L15.7222 3.108V9.142ZM17.0662 27.804C17.0942 27.776 17.1222 27.762 17.1362 27.734L21.9242 22.946L26.7122 27.734C26.8522 27.86 27.0342 27.93 27.2162 27.93C27.4402 27.93 27.6502 27.832 27.8042 27.664C28.0562 27.37 28.0562 26.936 27.8042 26.642L23.0162 21.854L27.8042 17.066C27.9442 16.912 28.0002 16.716 27.9862 16.506C27.9722 16.296 27.8742 16.114 27.7202 15.974C27.5802 15.848 27.3982 15.778 27.2162 15.778C27.0342 15.778 26.8522 15.848 26.7122 15.974L21.9242 20.762L17.1362 15.974C16.9962 15.848 16.8142 15.778 16.6322 15.778C16.4082 15.778 16.1982 15.876 16.0442 16.044C15.9223 16.1863 15.8552 16.3676 15.8552 16.555C15.8552 16.7424 15.9223 16.9237 16.0442 17.066L20.8322 21.854L16.0442 26.642C15.7222 26.922 15.6942 27.412 15.9742 27.734C16.1142 27.902 16.3382 28 16.5622 28C16.7442 28 16.9262 27.93 17.0662 27.804Z" fill="white"/>
</g>
<defs>
<clipPath id="clip0_0_1499">
<rect width="28" height="28" fill="white"/>
</clipPath>
</defs>
</svg>
