<svg width="30" height="30" viewBox="0 0 30 30" fill="none" xmlns="http://www.w3.org/2000/svg">
<path d="M11.2481 14.0601H5.62404C4.07188 14.0601 2.81201 12.8003 2.81201 11.2481V5.62404C2.81201 4.07188 4.07188 2.81201 5.62404 2.81201H11.2481C12.8003 2.81201 14.0601 4.07188 14.0601 5.62404V11.2481C14.0601 12.8003 12.8003 14.0601 11.2481 14.0601ZM5.62404 4.6867C5.11001 4.6867 4.6867 5.11001 4.6867 5.62404V11.2481C4.6867 11.7621 5.11001 12.1854 5.62404 12.1854H11.2481C11.7621 12.1854 12.1854 11.7621 12.1854 11.2481V5.62404C12.1854 5.11001 11.7621 4.6867 11.2481 4.6867H5.62404Z" fill="#6D7F9C"/>
<path d="M11.2481 27.188H5.62404C4.07188 27.188 2.81201 25.9281 2.81201 24.3759V18.7468C2.81201 17.1947 4.07188 15.9348 5.62404 15.9348H11.2481C12.8003 15.9348 14.0601 17.1947 14.0601 18.7468V24.3709C14.0601 25.9231 12.8003 27.188 11.2481 27.188ZM5.62404 17.8095C5.11001 17.8095 4.6867 18.2278 4.6867 18.7468V24.3709C4.6867 24.89 5.11001 25.3082 5.62404 25.3082H11.2481C11.7621 25.3082 12.1854 24.89 12.1854 24.3709V18.7468C12.1854 18.2278 11.7621 17.8095 11.2481 17.8095H5.62404Z" fill="#6D7F9C"/>
<path d="M24.8981 14.0601H19.2741C17.7219 14.0601 16.462 12.8003 16.462 11.2481V5.62404C16.462 4.07188 17.7219 2.81201 19.2741 2.81201H24.8981C26.4503 2.81201 27.7101 4.07188 27.7101 5.62404V11.2481C27.7101 12.8003 26.4503 14.0601 24.8981 14.0601ZM19.2741 4.6867C18.76 4.6867 18.3367 5.11001 18.3367 5.62404V11.2481C18.3367 11.7621 18.76 12.1854 19.2741 12.1854H24.8981C25.4121 12.1854 25.8355 11.7621 25.8355 11.2481V5.62404C25.8355 5.11001 25.4121 4.6867 24.8981 4.6867H19.2741Z" fill="#6D7F9C"/>
<path d="M24.8981 27.188H19.2741C17.7219 27.188 16.462 25.9281 16.462 24.3759V18.7468C16.462 17.1947 17.7219 15.9348 19.2741 15.9348H24.8981C26.4503 15.9348 27.7101 17.1947 27.7101 18.7468V24.3709C27.7101 25.9231 26.4503 27.188 24.8981 27.188ZM19.2741 17.8095C18.76 17.8095 18.3367 18.2278 18.3367 18.7468V24.3709C18.3367 24.89 18.76 25.3082 19.2741 25.3082H24.8981C25.4121 25.3082 25.8355 24.89 25.8355 24.3709V18.7468C25.8355 18.2278 25.4121 17.8095 24.8981 17.8095H19.2741Z" fill="#6D7F9C"/>
</svg>
