<svg width="255" height="49" viewBox="0 0 255 49" fill="none" xmlns="http://www.w3.org/2000/svg">
<path d="M90.1971 35.2816V10.561H96.0233V35.2816H90.1971Z" fill="black"/>
<path d="M87.3915 10.5958V15.1022H73.1804V10.5958H87.3915ZM76.689 4.673H82.5149V27.8806C82.5149 28.6642 82.633 29.265 82.8691 29.6832C83.1157 30.091 83.4377 30.3699 83.8347 30.5202C84.2317 30.6703 84.6717 30.7456 85.1545 30.7456C85.5192 30.7456 85.8519 30.7186 86.1523 30.6651C86.4635 30.6112 86.6993 30.563 86.8605 30.5202L87.842 35.0749C87.5308 35.1822 87.0856 35.3 86.5062 35.4288C85.9377 35.5577 85.2403 35.6327 84.414 35.6542C82.9549 35.697 81.6407 35.4771 80.4709 34.9944C79.3015 34.5008 78.3735 33.7391 77.6868 32.709C77.0109 31.6789 76.6782 30.3914 76.689 28.8465V4.673Z" fill="black"/>
<path d="M54.8325 25.0904V10.7668H60.6587V35.4873H55.0097V31.0934H54.752C54.1942 32.4775 53.2769 33.6094 52.0001 34.4895C50.7339 35.3692 49.1727 35.8089 47.3166 35.8089C45.6964 35.8089 44.2641 35.4498 43.0196 34.7308C41.7856 34.0011 40.8201 32.9443 40.1227 31.5602C39.4252 30.1654 39.0765 28.4809 39.0765 26.5068V10.7668H44.9024V25.6055C44.9024 27.1719 45.3317 28.4166 46.1899 29.3391C47.0485 30.2619 48.1748 30.7232 49.5697 30.7232C50.4282 30.7232 51.2597 30.5141 52.0644 30.0956C52.8691 29.6771 53.529 29.055 54.0441 28.2288C54.5696 27.3917 54.8325 26.3456 54.8325 25.0904Z" fill="black"/>
<path d="M70.6303 2.35538V35.316H64.8041V2.35538H70.6303Z" fill="black"/>
<path d="M0.0689087 2.52667H7.37573L17.161 26.4102H17.5472L27.3325 2.52667H34.639V35.4873H28.9096V12.843H28.6037L19.4946 35.3907H15.2136L6.10421 12.7947H5.79856V35.4873H0.0689087V2.52667Z" fill="black"/>
<path d="M110.283 0.963013C116.567 0.963013 121.673 6.06905 121.673 12.3534V35.2815H115.733V23.1055H104.784V35.2815H98.8929V12.3534C98.8929 6.06905 103.999 0.963013 110.283 0.963013ZM104.784 17.1649H115.733V12.3534C115.733 9.35837 113.278 6.9036 110.283 6.9036C107.239 6.9036 104.784 9.35837 104.784 12.3534V17.1649Z" fill="#138BFF"/>
<path d="M98.897 17.1732V23.1556H121.669V17.1732H98.897Z" fill="#10C0FF"/>
<path d="M115.761 17.1732V23.1556H121.669V17.1732H115.761Z" fill="#10C0FF"/>
<path d="M98.8929 17.1732V23.1556H104.801V17.1732H98.8929Z" fill="#10C0FF"/>
<path d="M90.1971 6.85901V0.98822H96.0888V6.85901H90.1971Z" fill="black"/>
<path d="M144.866 35.1644V0.792969H138.973V35.1644H144.866Z" fill="#10C0FF"/>
<path fill-rule="evenodd" clip-rule="evenodd" d="M144.903 25.5055C144.812 26.5959 144.554 27.6823 144.122 28.7253C143.116 31.1512 141.272 33.0777 139.01 34.2262V14.9444C140.011 15.4518 140.944 16.1209 141.765 16.9423C143.617 18.7946 144.695 21.21 144.903 23.7146V25.5055Z" fill="#10C0FF"/>
<path fill-rule="evenodd" clip-rule="evenodd" d="M139.01 0.913818V14.8082C134.984 12.7953 130.172 13.4826 126.883 16.4776C123.544 19.4724 122.415 24.1857 124.035 28.3588C125.655 32.5319 129.632 35.2816 134.1 35.2816C135.818 35.2816 137.488 34.8886 139.01 34.1032V35.2816V0.913818ZM129.239 24.4803C129.239 21.7798 131.449 19.6197 134.1 19.6197C136.113 19.6197 137.881 20.798 138.617 22.6144C139.353 24.4311 138.96 26.5424 137.586 27.9169C136.162 29.2918 134.1 29.7336 132.283 28.948C130.418 28.2115 129.239 26.444 129.239 24.4803Z" fill="#138BFF"/>
<path d="M202.425 13.8079H190.83V19.7648H202.425V13.8079Z" fill="#138BFF"/>
<path d="M156.906 13.8457C162.846 13.8457 167.658 18.7061 167.707 24.6467C167.707 29.0162 165.056 32.9439 161.03 34.6134C157.004 36.3317 152.34 35.399 149.247 32.3059C146.154 29.2127 145.221 24.5486 146.89 20.5228C148.559 16.4967 152.536 13.8457 156.906 13.8457ZM156.906 29.5073C159.557 29.5073 161.766 27.3471 161.766 24.6467C161.766 22.683 160.588 20.9155 158.722 20.179C156.906 19.3933 154.844 19.8352 153.42 21.21C152.045 22.5849 151.652 24.6959 152.389 26.5126C153.125 28.329 154.893 29.5073 156.906 29.5073Z" fill="#138BFF"/>
<path d="M180.454 13.8457C186.395 13.8457 191.206 18.7061 191.255 24.6467C191.255 29.0162 188.604 32.9439 184.578 34.6134C180.552 36.3317 175.888 35.399 172.795 32.3059C169.702 29.2127 168.769 24.5486 170.438 20.5228C172.108 16.4967 176.084 13.8457 180.454 13.8457ZM180.454 29.5073C183.105 29.5073 185.315 27.3471 185.315 24.6467C185.315 22.683 184.136 20.9155 182.271 20.179C180.454 19.3933 178.392 19.8352 176.968 21.21C175.594 22.5849 175.201 24.6959 175.937 26.5126C176.674 28.329 178.441 29.5073 180.454 29.5073Z" fill="#10C0FF"/>
<path d="M203.638 11.9328V6.06198H209.53V11.9328H203.638Z" fill="#10C0FF"/>
<path d="M180.46 13.8356C184.928 13.8356 188.904 16.585 190.525 20.7583C192.145 24.9314 191.016 29.6448 187.677 32.6395C184.388 35.6346 179.576 36.3218 175.55 34.309V48.203H169.659V13.8356H175.55V15.0139C177.072 14.2286 178.742 13.8356 180.46 13.8356ZM180.46 29.4975C183.111 29.4975 185.32 27.3373 185.32 24.6368C185.32 22.6732 184.142 20.9056 182.277 20.1692C180.46 19.3835 178.398 19.8254 176.974 21.2002C175.599 22.5748 175.206 24.686 175.943 26.5024C176.679 28.3192 178.447 29.4975 180.46 29.4975Z" fill="#138BFF"/>
<path d="M202.414 19.7765H199.616V29.4975H202.414V35.4381H199.469C196.278 35.4381 193.675 32.836 193.675 29.6448V19.7765H191.957V13.8359H193.675V1.11987H199.616V13.8359H202.414V19.7765Z" fill="#138BFF"/>
<path d="M209.53 35.4381H203.638V13.8848H209.53V35.4381Z" fill="#138BFF"/>
<path d="M227.786 13.8356H234.218L225.282 35.4873H218.851L209.915 13.8356H216.297L222.042 27.6808L227.786 13.8356Z" fill="#138BFF"/>
<path d="M244.022 29.3991C245.789 29.3991 247.164 29.0064 248.931 27.4846L252.76 32.0015C249.962 34.4562 247.36 35.4381 244.12 35.4381C240.732 35.4873 237.443 33.9652 235.283 31.3139C234.89 30.7739 234.546 30.234 234.203 29.6448C233.81 28.8591 233.515 28.0246 233.27 27.1408V27.0916C232.14 22.084 234.694 16.9287 239.358 14.8174C244.071 12.7065 249.619 14.1794 252.613 18.4017C252.711 18.4998 252.76 18.6471 252.859 18.7455C252.908 18.7943 252.957 18.8927 253.006 18.9416C253.055 19.1381 253.154 19.2854 253.252 19.4327C253.301 19.4816 253.351 19.58 253.351 19.6289C253.449 19.8254 253.547 20.0219 253.646 20.2181L253.695 20.2673V20.3654H253.744V20.4638L254.922 23.2131L248.931 25.6679L248.097 26.0117L241.518 28.761C242.254 29.2029 243.138 29.4483 244.022 29.3991ZM239.259 23.9004V23.9496L239.456 23.8512L242.991 22.3786L246.624 20.8564L246.575 20.8072C245.74 20.1692 244.709 19.8254 243.678 19.8254C243.089 19.7762 242.5 19.9235 242.009 20.1692C240.487 20.8072 239.407 22.2802 239.259 23.9004Z" fill="#10C0FF"/>
<path d="M161.767 13.831V35.4384H167.707V13.831H161.767Z" fill="#10C0FF"/>
<path fill-rule="evenodd" clip-rule="evenodd" d="M167.707 24.6033C167.659 20.4262 165.257 16.7873 161.767 15.0038V34.2656C165.351 32.4553 167.675 28.7853 167.707 24.722V24.6033Z" fill="#10C0FF"/>
<path d="M169.657 13.8356V48.207H175.55V13.8356H169.657Z" fill="#10C0FF"/>
<path fill-rule="evenodd" clip-rule="evenodd" d="M169.62 23.4945C169.711 22.4041 169.969 21.3177 170.401 20.2746C171.407 17.8488 173.25 15.9223 175.513 14.7738V34.0556C174.511 33.5482 173.579 32.8791 172.758 32.0577C170.905 30.2054 169.828 27.7899 169.62 25.2854V23.4945Z" fill="#10C0FF"/>
<path fill-rule="evenodd" clip-rule="evenodd" d="M175.513 48.0862V34.1918C179.539 36.2047 184.35 35.5174 187.64 32.5224C190.978 29.5276 192.108 24.8143 190.487 20.6412C188.867 16.4681 184.891 13.7184 180.423 13.7184C178.704 13.7184 177.035 14.1114 175.513 14.8968V13.7184V48.0862ZM185.283 24.5197C185.283 27.2202 183.074 29.3803 180.423 29.3803C178.41 29.3803 176.642 28.202 175.906 26.3856C175.169 24.5689 175.562 22.4576 176.937 21.0831C178.361 19.7082 180.423 19.2664 182.239 20.052C184.105 20.7885 185.283 22.556 185.283 24.5197Z" fill="#138BFF"/>
<path d="M199.617 1.12018H193.676L193.638 20.5191V29.0984C193.638 30.0116 193.69 30.6214 193.827 31.1426C193.965 31.6642 194.38 32.6721 194.931 33.2985C195.482 33.9252 196.043 34.4157 196.771 34.8197C197.498 35.2238 198.951 35.5202 199.617 35.4329V1.12018Z" fill="#10C0FF"/>
<path d="M227.787 13.8356L218.851 35.4867H225.291L234.219 13.8356H227.787Z" fill="#10C0FF"/>
<path d="M225.289 35.4627L222.053 27.7078L218.851 35.4627H225.289Z" fill="#10C0FF"/>
<path d="M202.459 29.4504H199.362V35.438H202.459V29.4504Z" fill="#10C0FF"/>
<path d="M199.617 13.807H193.651V19.7732H199.617V13.807Z" fill="#10C0FF"/>
<path fill-rule="evenodd" clip-rule="evenodd" d="M248.474 25.8567C248.559 25.5015 248.604 25.1307 248.604 24.7494C248.604 23.1249 247.786 21.6916 246.54 20.8389L239.207 23.9182C239.159 24.1879 239.134 24.4656 239.134 24.7494C239.134 26.4459 240.027 27.9342 241.367 28.7702L248.474 25.8567Z" fill="#138BFF"/>
<path d="M252.563 18.3152L233.159 26.4628C233.159 26.4628 233.321 27.7915 233.945 29.1291C234.57 30.4664 235.268 31.2758 235.268 31.2758L254.931 23.2146C254.427 21.5597 253.67 19.6578 252.563 18.3152Z" fill="#138BFF"/>
</svg>
