<svg width="19" height="20" viewBox="0 0 19 20" fill="none" xmlns="http://www.w3.org/2000/svg">
<path d="M0.514648 9.79395C0.514648 12.2446 1.48815 14.5948 3.22098 16.3276C4.95382 18.0605 7.30405 19.034 9.75465 19.034C12.2052 19.034 14.5555 18.0605 16.2883 16.3276C18.0212 14.5948 18.9946 12.2446 18.9946 9.79395C18.9946 7.34335 18.0212 4.99312 16.2883 3.26029C14.5555 1.52745 12.2052 0.553955 9.75465 0.553955C7.30405 0.553955 4.95382 1.52745 3.22098 3.26029C1.48815 4.99312 0.514648 7.34335 0.514648 9.79395Z" fill="#D0F7FF"/>
<path d="M14.1112 6.55933L14.8235 7.27277C14.9179 7.36727 14.9709 7.49537 14.9709 7.62893C14.9709 7.76249 14.9179 7.89059 14.8235 7.98509L9.72081 13.0889C9.55672 13.2529 9.34112 13.3552 9.11036 13.3787C8.87961 13.4021 8.64782 13.3453 8.45409 13.2177L8.31409 13.1069L5.80753 10.7246C5.75943 10.679 5.72081 10.6243 5.69387 10.5638C5.66694 10.5032 5.65221 10.4379 5.65055 10.3716C5.64888 10.3053 5.66031 10.2394 5.68417 10.1775C5.70804 10.1157 5.74387 10.0592 5.78961 10.0112L6.48401 9.28093C6.57612 9.18413 6.70289 9.12787 6.83646 9.12451C6.97004 9.12115 7.09948 9.17097 7.19633 9.26301L8.98945 10.9688L13.3989 6.55933C13.4457 6.51243 13.5013 6.47522 13.5625 6.44983C13.6237 6.42445 13.6893 6.41138 13.7556 6.41138C13.8219 6.41138 13.8875 6.42445 13.9487 6.44983C14.0099 6.47522 14.0655 6.51243 14.1123 6.55933H14.1112Z" fill="#4682C8"/>
</svg>
