<svg width="30" height="30" viewBox="0 0 30 30" fill="none" xmlns="http://www.w3.org/2000/svg">
<path d="M13.252 26.0186C12.9766 26.0186 12.707 25.9102 12.5049 25.7109L7.09082 20.2969C6.67773 19.8838 6.67773 19.2158 7.09082 18.8057C7.50391 18.3926 8.17188 18.3926 8.58203 18.8057L12.1973 22.418V5.29395C12.1973 4.71094 12.6689 4.23926 13.252 4.23926C13.835 4.23926 14.3066 4.71094 14.3066 5.29395V24.9639C14.3066 25.3916 14.0488 25.7754 13.6562 25.9395C13.5244 25.9922 13.3867 26.0186 13.252 26.0186Z" fill="#A7A7A7"/>
<path d="M13.252 26.0186C12.9766 26.0186 12.707 25.9102 12.5049 25.7109L7.09082 20.2969C6.67773 19.8838 6.67773 19.2158 7.09082 18.8057C7.50391 18.3926 8.17188 18.3926 8.58203 18.8057L12.1973 22.418V5.29395C12.1973 4.71094 12.6689 4.23926 13.252 4.23926C13.835 4.23926 14.3066 4.71094 14.3066 5.29395V24.9639C14.3066 25.3916 14.0488 25.7754 13.6562 25.9395C13.5244 25.9922 13.3867 26.0186 13.252 26.0186Z" fill="#A7A7A7"/>
<path d="M17.8357 4.23926C18.1111 4.23926 18.3806 4.34765 18.5828 4.54687L23.9968 9.96094C24.4099 10.374 24.4099 11.042 23.9968 11.4521C23.5837 11.8652 22.9158 11.8652 22.5056 11.4521L18.8904 7.83984L18.8904 24.9639C18.8904 25.5469 18.4187 26.0186 17.8357 26.0186C17.2527 26.0186 16.781 25.5469 16.781 24.9639L16.781 5.29394C16.781 4.86621 17.0388 4.48242 17.4314 4.31836C17.5632 4.26562 17.7009 4.23926 17.8357 4.23926Z" fill="#A7A7A7"/>
<path d="M17.8357 4.23926C18.1111 4.23926 18.3806 4.34765 18.5828 4.54687L23.9968 9.96094C24.4099 10.374 24.4099 11.042 23.9968 11.4521C23.5837 11.8652 22.9158 11.8652 22.5056 11.4521L18.8904 7.83984L18.8904 24.9639C18.8904 25.5469 18.4187 26.0186 17.8357 26.0186C17.2527 26.0186 16.781 25.5469 16.781 24.9639L16.781 5.29394C16.781 4.86621 17.0388 4.48242 17.4314 4.31836C17.5632 4.26562 17.7009 4.23926 17.8357 4.23926Z" fill="#A7A7A7"/>
</svg>
