<svg width="22" height="22" viewBox="0 0 22 22" fill="none" xmlns="http://www.w3.org/2000/svg">
<g clip-path="url(#clip0_0_1766)">
<rect width="22" height="21.12" transform="translate(0 0.439941)" fill="white"/>
<path d="M0 15.5257C0 17.2605 3.98491 18.6182 8.76679 18.8068C9.94329 18.7691 11.0439 18.656 12.0306 18.5051C12.486 19.1085 13.0933 19.5988 13.7764 19.9382C12.4101 20.24 10.8162 20.4285 9.10836 20.4285C3.98491 20.4285 0 19.0331 0 17.1474V15.5257ZM0 11C0 12.7348 3.98491 14.0925 8.76679 14.2811C9.63968 14.2434 10.4367 14.2057 11.2336 14.0925C11.0818 14.5451 11.0059 15.0354 11.0059 15.5257V15.8274C10.3987 15.8651 9.75353 15.9028 9.07041 15.9028C3.98491 15.9028 0 14.5074 0 12.6217V11ZM17.8372 6.47424V8.09596C17.8372 9.98167 13.8523 11.3771 9.07041 11.3771C3.98491 11.3771 0 9.98167 0 8.09596V6.47424C0 8.2091 3.98491 9.56681 8.76679 9.75539C13.8523 9.56681 17.8372 8.2091 17.8372 6.47424Z" fill="#4682C8"/>
<path d="M8.9186 6.85137C4.63008 6.85137 0 5.64451 0 3.64566C0 1.6468 4.63008 0.439941 8.9186 0.439941C13.2071 0.439941 17.8372 1.68451 17.8372 3.64566C17.8372 5.6068 13.2071 6.85137 8.9186 6.85137ZM1.55601 3.64566C1.89757 4.21137 4.66803 5.3428 8.9186 5.3428C13.1692 5.3428 15.9396 4.21137 16.2812 3.64566C15.9396 3.07994 13.1692 1.94851 8.9186 1.94851C4.66803 1.94851 1.89757 3.07994 1.55601 3.64566ZM16.3191 10.2457C19.4691 10.2457 22.0119 12.7725 22.0119 15.9028C22.0119 19.0331 19.4691 21.5599 16.3191 21.5599C13.1692 21.5599 10.6264 19.0331 10.6264 15.9028C10.6264 12.7725 13.1692 10.2457 16.3191 10.2457ZM16.3191 11.7542C14.0041 11.7542 12.1445 13.6022 12.1445 15.9028C12.1445 18.2034 14.0041 20.0514 16.3191 20.0514C18.6342 20.0514 20.4938 18.2034 20.4938 15.9028C20.4938 13.6022 18.6342 11.7542 16.3191 11.7542Z" fill="#4682C8"/>
<path d="M17.8535 12.7489L17.7574 12.8702L16.1437 16.8642L16.1679 16.921L18.4646 16.5741L17.8535 12.7489Z" fill="#4682C8"/>
<path d="M17.854 12.7491L14.7571 15.0762L16.1683 16.9211L16.9516 14.9825L17.854 12.7491Z" fill="#4682C8"/>
<path d="M16.0266 17.2715L15.9925 17.2901L15.4177 18.7128L15.4136 18.7887L18.3242 16.9257L16.0266 17.2715Z" fill="#4682C8"/>
<path d="M15.4137 18.7888L16.0267 17.2715L14.6152 15.4272L15.4137 18.7888Z" fill="#4682C8"/>
<path d="M16.1675 16.9232L18.4641 16.5764L16.9507 14.9846L16.1675 16.9232Z" fill="#4682C8"/>
<path d="M14.7562 15.0783L16.1674 16.9232L16.9507 14.9846L14.7562 15.0783Z" fill="#4682C8"/>
</g>
<defs>
<clipPath id="clip0_0_1766">
<rect width="22" height="21.12" fill="white" transform="translate(0 0.439941)"/>
</clipPath>
</defs>
</svg>
