<svg width="160" height="160" viewBox="0 0 160 160" fill="none" xmlns="http://www.w3.org/2000/svg">
<path d="M79.986 155C76.3661 155.004 72.8088 154.055 69.6716 152.25L22.5825 125.047C19.4466 123.236 16.8425 120.632 15.032 117.496C13.2214 114.36 12.2682 110.803 12.2681 107.182V52.8042C12.2657 49.1808 13.2178 45.6207 15.0285 42.4822C16.8392 39.3437 19.4446 36.7375 22.5825 34.9258L69.6716 7.75057C72.8076 5.94 76.3649 4.98682 79.986 4.98682C83.6072 4.98682 87.1645 5.94 90.3005 7.75057L137.417 34.9395C140.555 36.7512 143.16 39.3575 144.971 42.496C146.782 45.6345 147.734 49.1946 147.732 52.818V107.182C147.734 110.805 146.782 114.366 144.971 117.504C143.16 120.643 140.555 123.249 137.417 125.061L90.3005 152.236C87.1646 154.047 83.6072 155 79.986 155ZM79.986 9.12584C77.0901 9.12262 74.2443 9.8815 71.7345 11.3263L24.6454 38.5152C22.1371 39.9634 20.0541 42.0462 18.6057 44.5544C17.1572 47.0626 16.3944 49.9078 16.3939 52.8042V107.182C16.3944 110.078 17.1572 112.924 18.6057 115.432C20.0541 117.94 22.1371 120.023 24.6454 121.471L71.7345 148.66C74.2433 150.109 77.0891 150.871 79.986 150.871C82.8829 150.871 85.7288 150.109 88.2376 148.66L135.327 121.471C137.835 120.023 139.918 117.94 141.366 115.432C142.815 112.924 143.578 110.078 143.578 107.182V52.8042C143.578 49.9078 142.815 47.0626 141.366 44.5544C139.918 42.0462 137.835 39.9634 135.327 38.5152L88.2376 11.3263C85.7278 9.8815 82.882 9.12262 79.986 9.12584Z" fill="#C7E7FF"/>
<path d="M64.5282 94.9147C64.0737 94.9152 63.6317 94.7656 63.2709 94.4891C62.9102 94.2126 62.6509 93.8246 62.5333 93.3856C62.4156 92.9465 62.4463 92.4809 62.6206 92.0611C62.7948 91.6413 63.1028 91.2908 63.4968 91.064L77.1119 83.1975C77.3559 83.0583 77.5599 82.8587 77.7045 82.6179C77.849 82.377 77.9291 82.103 77.937 81.8222V58.0714C77.9291 57.7907 77.849 57.5167 77.7045 57.2758C77.5599 57.0349 77.3559 56.8353 77.1119 56.6962L56.5792 44.8001C56.3274 44.6579 56.0432 44.5832 55.754 44.5832C55.4649 44.5832 55.1806 44.6579 54.9289 44.8001L34.4099 56.6549C34.1659 56.7941 33.9619 56.9937 33.8173 57.2345C33.6728 57.4754 33.5927 57.7494 33.5848 58.0302V81.781C33.5927 82.0617 33.6728 82.3358 33.8173 82.5766C33.9619 82.8175 34.1659 83.0171 34.4099 83.1562L48.025 91.064C48.2598 91.1995 48.4656 91.3798 48.6307 91.5948C48.7958 91.8098 48.9169 92.0552 48.9871 92.317C49.0574 92.5788 49.0754 92.8519 49.0401 93.1206C49.0048 93.3893 48.9169 93.6485 48.7814 93.8833C48.646 94.1181 48.4656 94.3239 48.2506 94.489C48.0356 94.654 47.7902 94.7752 47.5284 94.8454C47.2666 94.9156 46.9936 94.9336 46.7248 94.8983C46.4561 94.863 46.1969 94.7751 45.9621 94.6397L32.347 86.7732C31.4704 86.2671 30.7422 85.5395 30.2353 84.6633C29.7285 83.7872 29.4607 82.7932 29.459 81.781V58.0714C29.4703 57.0686 29.7426 56.0859 30.249 55.2202C30.7554 54.3546 31.4784 53.6356 32.347 53.1342L52.866 41.2795C53.744 40.7725 54.7401 40.5056 55.754 40.5056C56.7679 40.5056 57.764 40.7725 58.6421 41.2795L79.161 53.1342C80.0386 53.6393 80.7675 54.3666 81.2745 55.243C81.7815 56.1194 82.0487 57.1139 82.0491 58.1264V81.781C82.0487 82.7935 81.7815 83.788 81.2745 84.6644C80.7675 85.5408 80.0386 86.2681 79.161 86.7732L65.5459 94.6397C65.2367 94.8192 64.8857 94.914 64.5282 94.9147Z" fill="#C7E7FF"/>
<path d="M112.979 94.9147C112.524 94.9152 112.082 94.7656 111.722 94.4891C111.361 94.2126 111.101 93.8246 110.984 93.3856C110.866 92.9465 110.897 92.4809 111.071 92.0611C111.245 91.6413 111.553 91.2908 111.947 91.064L125.576 83.1975C125.82 83.0583 126.024 82.8587 126.169 82.6179C126.313 82.377 126.393 82.103 126.401 81.8222V58.0714C126.393 57.7907 126.313 57.5167 126.169 57.2758C126.024 57.0349 125.82 56.8353 125.576 56.6962L105.044 44.8001C104.792 44.6579 104.508 44.5832 104.218 44.5832C103.929 44.5832 103.645 44.6579 103.393 44.8001L82.8743 56.6549C82.6303 56.7941 82.4262 56.9937 82.2817 57.2345C82.1372 57.4754 82.0571 57.7494 82.0491 58.0302V81.781C82.0571 82.0617 82.1372 82.3358 82.2817 82.5766C82.4262 82.8175 82.6303 83.0171 82.8743 83.1562L96.5032 91.0227C96.7379 91.1582 96.9437 91.3386 97.1088 91.5536C97.2739 91.7685 97.395 92.0139 97.4652 92.2757C97.5355 92.5375 97.5535 92.8106 97.5182 93.0793C97.4829 93.3481 97.395 93.6073 97.2595 93.842C97.1241 94.0768 96.9437 94.2826 96.7287 94.4477C96.5137 94.6128 96.2684 94.7339 96.0066 94.8041C95.4778 94.946 94.9144 94.872 94.4403 94.5984L80.8114 86.7319C79.9366 86.2237 79.2099 85.4957 78.7033 84.62C78.1967 83.7443 77.9279 82.7514 77.9233 81.7397V58.0714C77.9374 57.0691 78.2108 56.0876 78.7169 55.2223C79.223 54.3571 79.9446 53.6377 80.8114 53.1342L101.33 41.2795C102.208 40.7725 103.204 40.5056 104.218 40.5056C105.232 40.5056 106.228 40.7725 107.106 41.2795L127.639 53.1342C128.508 53.636 129.233 54.3546 129.741 55.22C130.25 56.0853 130.525 57.0678 130.541 58.0714V81.781C130.536 82.7926 130.268 83.7855 129.761 84.6612C129.254 85.5369 128.528 86.265 127.653 86.7732L114.038 94.6397C113.718 94.8297 113.351 94.9251 112.979 94.9147Z" fill="#C7E7FF"/>
<path d="M79.2023 128.43C78.1869 128.431 77.1898 128.16 76.3142 127.646L55.7953 115.805C54.9167 115.298 54.1871 114.568 53.6802 113.689C53.1732 112.81 52.9066 111.814 52.9072 110.799V87.1033C52.9066 86.0887 53.1732 85.0919 53.6802 84.2131C54.1871 83.3343 54.9167 82.6046 55.7953 82.0973L76.3142 70.2563C77.1923 69.7493 78.1883 69.4824 79.2023 69.4824C80.2162 69.4824 81.2122 69.7493 82.0903 70.2563L102.609 82.0973C103.486 82.6067 104.214 83.3369 104.721 84.2152C105.227 85.0935 105.495 86.0893 105.497 87.1033V110.799C105.498 111.814 105.231 112.81 104.724 113.689C104.217 114.568 103.488 115.298 102.609 115.805L82.0903 127.646C81.214 128.158 80.2174 128.429 79.2023 128.43ZM79.2023 73.6119C78.9122 73.6082 78.6268 73.6843 78.3771 73.832L57.8582 85.673C57.6159 85.8141 57.4132 86.0142 57.269 86.2546C57.1247 86.4951 57.0436 86.7681 57.033 87.0482V110.799C57.0423 111.08 57.1229 111.353 57.2673 111.594C57.4117 111.834 57.6151 112.034 57.8582 112.174L78.3771 124.029C78.6289 124.171 78.9131 124.246 79.2023 124.246C79.4914 124.246 79.7757 124.171 80.0274 124.029L100.546 112.271C100.789 112.13 100.993 111.931 101.137 111.69C101.282 111.449 101.362 111.176 101.372 110.895V87.1033C101.361 86.8231 101.28 86.5501 101.136 86.3097C100.991 86.0692 100.789 85.8691 100.546 85.728L80.0274 73.832C79.7772 73.6856 79.4921 73.6096 79.2023 73.6119Z" fill="#C7E7FF"/>
</svg>
