<svg width="25" height="20" viewBox="0 0 25 20" fill="none" xmlns="http://www.w3.org/2000/svg">
<path d="M5.13839 15.4865C5.27163 15.6546 5.46461 15.7651 5.67724 15.7948C5.88988 15.8246 6.10581 15.7714 6.28018 15.6462C6.45455 15.5211 6.57394 15.3336 6.61354 15.1228C6.65315 14.912 6.60993 14.6941 6.49286 14.5143C5.5418 13.2011 5.03055 11.6213 5.03214 10.0005C5.03214 8.37549 5.53661 6.81648 6.49286 5.48758C6.56066 5.39904 6.60998 5.29781 6.63791 5.18989C6.66583 5.08196 6.67178 4.96953 6.65542 4.85927C6.63905 4.749 6.60069 4.64314 6.54262 4.54795C6.48454 4.45276 6.40793 4.37018 6.31733 4.30511C6.22672 4.24003 6.12396 4.19379 6.01514 4.16911C5.90631 4.14443 5.79364 4.14182 5.68378 4.16143C5.57393 4.18104 5.46913 4.22248 5.3756 4.28329C5.28208 4.34409 5.20172 4.42303 5.13929 4.51543C3.98302 6.11099 3.36115 8.03077 3.3625 10.0005C3.36053 11.9702 3.98212 13.8901 5.13839 15.4856M12.4348 15.8298C13.1994 15.8298 13.9565 15.6794 14.6629 15.3871C15.3693 15.0948 16.0112 14.6664 16.5518 14.1264C17.0925 13.5863 17.5213 12.9452 17.8139 12.2395C18.1065 11.5339 18.2571 10.7776 18.2571 10.0139C18.2571 9.25011 18.1065 8.49383 17.8139 7.78821C17.5213 7.08258 17.0925 6.44144 16.5518 5.90137C16.0112 5.36131 15.3693 4.93291 14.6629 4.64063C13.9565 4.34835 13.1994 4.19792 12.4348 4.19792C10.8906 4.19792 9.40972 4.81067 8.31782 5.90137C7.22592 6.99208 6.6125 8.47139 6.6125 10.0139C6.6125 11.5564 7.22592 13.0357 8.31782 14.1264C9.40972 15.2171 10.8906 15.8298 12.4348 15.8298ZM3.67232 19.7158C3.74455 19.7981 3.8323 19.8654 3.93058 19.9139C4.02885 19.9623 4.13572 19.991 4.24507 19.9982C4.35443 20.0054 4.46414 19.991 4.56793 19.9559C4.67172 19.9207 4.76757 19.8655 4.85 19.7934C4.93243 19.7212 4.99982 19.6335 5.04834 19.5354C5.09685 19.4372 5.12553 19.3305 5.13275 19.2212C5.13996 19.112 5.12556 19.0024 5.09038 18.8987C5.05519 18.795 4.9999 18.6993 4.92768 18.617C2.8308 16.2352 1.67252 13.1731 1.66875 10.0014C1.66875 6.83789 2.82679 3.77874 4.92768 1.38493C5.06699 1.21776 5.1354 1.00283 5.11832 0.785992C5.10124 0.569149 5.00002 0.367556 4.83625 0.224209C4.67248 0.080862 4.45912 0.00710678 4.24168 0.0186749C4.02424 0.030241 3.81993 0.126217 3.67232 0.286131C1.30821 2.97226 0.0029583 6.42568 0 10.0023C0 13.5689 1.30446 17.0187 3.67232 19.7166M18.7821 15.6773C18.8711 15.7413 18.9718 15.7871 19.0785 15.8122C19.1852 15.8372 19.2958 15.841 19.4039 15.8233C19.5121 15.8055 19.6157 15.7667 19.7088 15.7089C19.8019 15.6511 19.8826 15.5755 19.9464 15.4865C21.1009 13.8902 21.7214 11.9706 21.7196 10.0014C21.7196 8.02587 21.1062 6.12884 19.9464 4.51632C19.8825 4.42742 19.8017 4.35197 19.7086 4.29427C19.6155 4.23657 19.512 4.19775 19.4039 4.18002C19.2957 4.1623 19.1852 4.16602 19.0785 4.19097C18.9718 4.21593 18.8711 4.26163 18.7821 4.32546C18.6931 4.38929 18.6176 4.47001 18.5598 4.563C18.5021 4.65599 18.4632 4.75944 18.4455 4.86744C18.4277 4.97543 18.4315 5.08586 18.4564 5.19242C18.4814 5.29898 18.5272 5.39957 18.5911 5.48847C19.5415 6.8016 20.0524 8.38103 20.0509 10.0014C20.0509 11.6255 19.5464 13.1863 18.5911 14.5143C18.5271 14.6032 18.4813 14.7038 18.4563 14.8103C18.4313 14.9169 18.4276 15.0274 18.4453 15.1354C18.4631 15.2434 18.502 15.3468 18.5597 15.4398C18.6175 15.5328 18.6931 15.6135 18.7821 15.6773ZM23.3321 10.0014C23.3321 13.164 22.1759 16.2232 20.0759 18.617C20.0037 18.6992 19.9484 18.7949 19.9132 18.8985C19.878 19.0022 19.8635 19.1117 19.8707 19.2209C19.8779 19.3301 19.9065 19.4368 19.955 19.535C20.0034 19.6331 20.0708 19.7208 20.1531 19.7929C20.2355 19.8651 20.3313 19.9203 20.435 19.9555C20.5388 19.9906 20.6484 20.005 20.7577 19.9979C20.8671 19.9907 20.9739 19.9621 21.0721 19.9137C21.1704 19.8653 21.2581 19.798 21.3304 19.7158C23.6929 17.0296 24.9971 13.577 25 10.0014C25 6.43387 23.6964 2.98407 21.3304 0.286131C21.2583 0.20344 21.1706 0.135765 21.0723 0.0869923C20.9741 0.0382175 20.8671 0.00930214 20.7576 0.00189972C20.6481 -0.00550079 20.5382 0.00876045 20.4343 0.0438633C20.3303 0.078968 20.2343 0.134226 20.1518 0.206469C20.0692 0.278709 20.0018 0.366516 19.9533 0.464853C19.9047 0.563189 19.8762 0.670122 19.8691 0.77952C19.8621 0.888918 19.8767 0.998631 19.9122 1.10237C19.9477 1.2061 20.0033 1.30182 20.0759 1.38404C22.172 3.76673 23.3293 6.82944 23.3321 10.0014Z" fill="#F9B34A"/>
<circle cx="12.5" cy="10" r="4.5" fill="#F9B34A"/>
<path d="M10.8453 11.1584C10.8358 11.1977 10.8304 11.2207 10.7762 11.2072L10.1585 11.0527L10 11.6894L11.1393 11.9739L10.909 12.8992L11.5173 13.0509L11.7476 12.1257L12.1255 12.2205L11.8952 13.1444L12.4737 13.2893L12.7053 12.3641L13.1402 12.4738C13.4301 12.5456 14.5287 12.5592 14.7658 11.5987C14.8418 11.3419 14.8287 11.0669 14.7286 10.8185C14.6285 10.5701 14.4473 10.3628 14.2145 10.2304C14.2145 10.2304 14.8918 10.0232 14.9866 9.40272C15.0815 8.78227 14.6493 8.49372 14.3987 8.33522C14.2016 8.22135 13.992 8.13044 13.7742 8.06428L14.0153 7.09703L13.4585 6.96156L13.2201 7.92339L12.7731 7.8123L13.0169 6.84641L12.4534 6.71094L12.2122 7.67684L11.0336 7.38287L10.89 7.95184L11.5362 8.11305C11.6012 8.1293 11.5931 8.16182 11.5877 8.18349L10.8453 11.1584ZM12.6281 8.38534L13.3149 8.55739C13.4328 8.58719 13.9814 8.82833 13.8568 9.31466C13.8264 9.44895 13.7488 9.56789 13.6382 9.64991C13.5276 9.73193 13.3913 9.77159 13.254 9.76171C13.198 9.7616 13.1421 9.75569 13.0873 9.7441L12.3301 9.55444L12.6281 8.38534ZM12.1933 10.1641L13.2662 10.435C13.3435 10.4558 13.4158 10.4922 13.4786 10.5419C13.5414 10.5917 13.5934 10.6537 13.6314 10.7242C13.6695 10.7946 13.6927 10.8722 13.6998 10.9519C13.7069 11.0317 13.6976 11.1121 13.6726 11.1882C13.5764 11.5756 13.1957 11.661 13.0074 11.661C12.9796 11.6618 12.9519 11.6591 12.9248 11.6529L11.8884 11.3955L12.1933 10.1641Z" fill="white"/>
</svg>
